<mxfile host="app.diagrams.net" modified="2022-08-10T09:21:28.087Z" agent="5.0 (Macintosh; Intel Mac OS X 10_15_7) AppleWebKit/537.36 (KHTML, like Gecko) Chrome/104.0.0.0 Safari/537.36" etag="wijLiGhImNYzPKCkXZ6B" version="20.2.3" type="github">
  <diagram id="cWfc6t0wRO1suYFJfszW" name="第 1 页">
    <mxGraphModel dx="1886" dy="849" grid="1" gridSize="10" guides="1" tooltips="1" connect="1" arrows="1" fold="1" page="1" pageScale="1" pageWidth="827" pageHeight="1169" math="0" shadow="0">
      <root>
        <mxCell id="0" />
        <mxCell id="1" parent="0" />
        <mxCell id="v8eJ9EKe1QdFgK2GOFRn-3" value="" style="edgeStyle=orthogonalEdgeStyle;rounded=0;orthogonalLoop=1;jettySize=auto;html=1;" edge="1" parent="1" source="v8eJ9EKe1QdFgK2GOFRn-1" target="v8eJ9EKe1QdFgK2GOFRn-2">
          <mxGeometry relative="1" as="geometry" />
        </mxCell>
        <mxCell id="v8eJ9EKe1QdFgK2GOFRn-1" value="积分购-优惠券" style="whiteSpace=wrap;html=1;" vertex="1" parent="1">
          <mxGeometry x="30" y="230" width="120" height="60" as="geometry" />
        </mxCell>
        <mxCell id="v8eJ9EKe1QdFgK2GOFRn-6" value="" style="edgeStyle=orthogonalEdgeStyle;rounded=0;orthogonalLoop=1;jettySize=auto;html=1;" edge="1" parent="1" source="v8eJ9EKe1QdFgK2GOFRn-2" target="v8eJ9EKe1QdFgK2GOFRn-5">
          <mxGeometry relative="1" as="geometry" />
        </mxCell>
        <mxCell id="v8eJ9EKe1QdFgK2GOFRn-2" value="是否支持退款" style="rhombus;whiteSpace=wrap;html=1;" vertex="1" parent="1">
          <mxGeometry x="300" y="220" width="130" height="80" as="geometry" />
        </mxCell>
        <mxCell id="v8eJ9EKe1QdFgK2GOFRn-4" value="配置" style="text;html=1;align=center;verticalAlign=middle;resizable=0;points=[];autosize=1;strokeColor=none;fillColor=none;" vertex="1" parent="1">
          <mxGeometry x="185" y="235" width="50" height="30" as="geometry" />
        </mxCell>
        <mxCell id="v8eJ9EKe1QdFgK2GOFRn-9" value="" style="edgeStyle=orthogonalEdgeStyle;rounded=0;orthogonalLoop=1;jettySize=auto;html=1;" edge="1" parent="1" source="v8eJ9EKe1QdFgK2GOFRn-5" target="v8eJ9EKe1QdFgK2GOFRn-8">
          <mxGeometry relative="1" as="geometry" />
        </mxCell>
        <mxCell id="v8eJ9EKe1QdFgK2GOFRn-11" value="" style="edgeStyle=orthogonalEdgeStyle;rounded=0;orthogonalLoop=1;jettySize=auto;html=1;" edge="1" parent="1" source="v8eJ9EKe1QdFgK2GOFRn-5" target="v8eJ9EKe1QdFgK2GOFRn-10">
          <mxGeometry relative="1" as="geometry" />
        </mxCell>
        <mxCell id="v8eJ9EKe1QdFgK2GOFRn-5" value="可退款" style="whiteSpace=wrap;html=1;" vertex="1" parent="1">
          <mxGeometry x="515" y="230" width="120" height="60" as="geometry" />
        </mxCell>
        <mxCell id="v8eJ9EKe1QdFgK2GOFRn-7" value="是" style="text;html=1;align=center;verticalAlign=middle;resizable=0;points=[];autosize=1;strokeColor=none;fillColor=none;" vertex="1" parent="1">
          <mxGeometry x="440" y="225" width="40" height="30" as="geometry" />
        </mxCell>
        <mxCell id="v8eJ9EKe1QdFgK2GOFRn-13" value="" style="edgeStyle=orthogonalEdgeStyle;rounded=0;orthogonalLoop=1;jettySize=auto;html=1;" edge="1" parent="1" source="v8eJ9EKe1QdFgK2GOFRn-8" target="v8eJ9EKe1QdFgK2GOFRn-12">
          <mxGeometry relative="1" as="geometry" />
        </mxCell>
        <mxCell id="v8eJ9EKe1QdFgK2GOFRn-8" value="过期自动退款" style="whiteSpace=wrap;html=1;" vertex="1" parent="1">
          <mxGeometry x="715" y="230" width="120" height="60" as="geometry" />
        </mxCell>
        <mxCell id="v8eJ9EKe1QdFgK2GOFRn-15" value="" style="edgeStyle=orthogonalEdgeStyle;rounded=0;orthogonalLoop=1;jettySize=auto;html=1;" edge="1" parent="1" source="v8eJ9EKe1QdFgK2GOFRn-10" target="v8eJ9EKe1QdFgK2GOFRn-14">
          <mxGeometry relative="1" as="geometry" />
        </mxCell>
        <mxCell id="v8eJ9EKe1QdFgK2GOFRn-10" value="主动退款" style="whiteSpace=wrap;html=1;" vertex="1" parent="1">
          <mxGeometry x="515" y="370" width="120" height="60" as="geometry" />
        </mxCell>
        <mxCell id="v8eJ9EKe1QdFgK2GOFRn-17" value="" style="edgeStyle=orthogonalEdgeStyle;rounded=0;orthogonalLoop=1;jettySize=auto;html=1;" edge="1" parent="1" source="v8eJ9EKe1QdFgK2GOFRn-12" target="v8eJ9EKe1QdFgK2GOFRn-16">
          <mxGeometry relative="1" as="geometry" />
        </mxCell>
        <mxCell id="v8eJ9EKe1QdFgK2GOFRn-12" value="优惠券有效期过自动退" style="whiteSpace=wrap;html=1;" vertex="1" parent="1">
          <mxGeometry x="915" y="230" width="120" height="60" as="geometry" />
        </mxCell>
        <mxCell id="v8eJ9EKe1QdFgK2GOFRn-18" value="" style="edgeStyle=orthogonalEdgeStyle;rounded=0;orthogonalLoop=1;jettySize=auto;html=1;" edge="1" parent="1" source="v8eJ9EKe1QdFgK2GOFRn-14" target="v8eJ9EKe1QdFgK2GOFRn-16">
          <mxGeometry relative="1" as="geometry" />
        </mxCell>
        <mxCell id="v8eJ9EKe1QdFgK2GOFRn-14" value="会员用户主动发起" style="whiteSpace=wrap;html=1;" vertex="1" parent="1">
          <mxGeometry x="715" y="370" width="120" height="60" as="geometry" />
        </mxCell>
        <mxCell id="v8eJ9EKe1QdFgK2GOFRn-16" value="退款列表" style="whiteSpace=wrap;html=1;" vertex="1" parent="1">
          <mxGeometry x="915" y="370" width="120" height="60" as="geometry" />
        </mxCell>
      </root>
    </mxGraphModel>
  </diagram>
</mxfile>
